<?xml version="1.0" encoding="utf-8"?>
<!-- Generator: Adobe Illustrator 23.0.0, SVG Export Plug-In . SVG Version: 6.00 Build 0)  -->
<svg version="1.1" id="Layer_1" xmlns="http://www.w3.org/2000/svg" xmlns:xlink="http://www.w3.org/1999/xlink" x="0px" y="0px"
	 viewBox="0 0 2500 2500" style="enable-background:new 0 0 2500 2500;" xml:space="preserve">
<style type="text/css">
	.st0{fill:#FFFFFF;}
</style>
<g transform="translate(0 1447.6)">
	<path class="st0" d="M956.3-1241.3c-78.1,0-141,69.5-141,155.8v158.6c-5.9,0.7-10.4,5.7-10.4,11.8v354.4c0,6.1,4.5,11,10.4,11.8
		v1028c0,86.3,62.9,155.8,141,155.8h720c78.1,0,141-69.5,141-155.8V-675.1c6.6,0,11.8-1.7,11.8-3.9V-794c0-2.1-5.3-3.8-11.8-3.9
		v-287.6c0-86.3-62.9-155.8-141-155.8L956.3-1241.3L956.3-1241.3z M1616.3-1187.1c10.9,0,19.6,8.8,19.6,19.6
		c0,10.9-8.8,19.6-19.6,19.6s-19.6-8.8-19.6-19.6C1596.6-1178.3,1605.4-1187.1,1616.3-1187.1z M1546.6-1177.5c5.5,0,10,4.5,10,10
		c0,5.5-4.5,10-10,10s-10-4.5-10-10C1536.6-1173,1541.1-1177.5,1546.6-1177.5z M1087.9-1174.1c6.8,0,12.3,5.5,12.3,12.3
		c0,6.8-5.5,12.3-12.3,12.3c-6.8,0-12.3-5.5-12.3-12.3c0,0,0,0,0,0C1075.7-1168.6,1081.2-1174.1,1087.9-1174.1L1087.9-1174.1z
		 M1171.4-1167.6h289.8c19,0,34.4,2.2,34.4,4.9c0,2.7-15.3,4.9-34.4,4.9h-289.8c-19,0-34.4-2.2-34.4-4.9
		C1137-1165.4,1152.4-1167.6,1171.4-1167.6z M1019.8-1079.2h592.9c95.6,0,172.6,0.9,172.6,2V495.5c0,1.1-77,2-172.6,2h-592.9
		c-95.6,0-172.6-0.9-172.6-2v-1572.7C847.3-1078.3,924.2-1079.2,1019.8-1079.2L1019.8-1079.2z M1208.3,526.9h216.1
		c19,0,34.4,15.3,34.4,34.4s-15.3,34.4-34.4,34.4h-216.1c-19,0-34.4-15.3-34.4-34.4S1189.2,526.9,1208.3,526.9z"/>
	<circle class="st0" cx="1704.1" cy="-1145" r="7.5"/>
</g>
</svg>
