<?xml version="1.0" encoding="utf-8"?>
<!-- Generator: Adobe Illustrator 23.0.0, SVG Export Plug-In . SVG Version: 6.00 Build 0)  -->
<svg version="1.1" xmlns="http://www.w3.org/2000/svg" xmlns:xlink="http://www.w3.org/1999/xlink" x="0px" y="0px"
	 viewBox="0 0 200 100" style="enable-background:new 0 0 200 100;" xml:space="preserve">
<style type="text/css">
	.st0{display:none;}
	.st1{display:inline;}
	.st2{fill:#6454F0;}
	.st3{fill:#404040;}
	.st4{fill:#F2A16A;}
	.st5{fill:#FC76B3;}
	.st6{fill:#95C674;}
	.st7{fill:#C165DD;}
	.st8{fill:#37C6CD;}
	.st9{fill:#FACD68;}
</style>
<g id="_x31_" class="st0">
	<g class="st1">
		<path class="st2" d="M200,80c0,11-9,20-20,20H20C9,100,0,91,0,80V20C0,9,9,0,20,0h160c11,0,20,9,20,20V80z"/>
	</g>
</g>
<g id="_x32_" class="st0">
	<g class="st1">
		<path class="st3" d="M200,80c0,11-9,20-20,20H20C9,100,0,91,0,80V20C0,9,9,0,20,0h160c11,0,20,9,20,20V80z"/>
	</g>
</g>
<g id="_x33_" class="st0">
	<g class="st1">
		<path class="st4" d="M200,80c0,11-9,20-20,20H20C9,100,0,91,0,80V20C0,9,9,0,20,0h160c11,0,20,9,20,20V80z"/>
	</g>
</g>
<g id="_x34_" class="st0">
	<g class="st1">
		<path class="st5" d="M200,80c0,11-9,20-20,20H20C9,100,0,91,0,80V20C0,9,9,0,20,0h160c11,0,20,9,20,20V80z"/>
	</g>
</g>
<g id="_x35_" class="st0">
	<g class="st1">
		<path class="st6" d="M200,80c0,11-9,20-20,20H20C9,100,0,91,0,80V20C0,9,9,0,20,0h160c11,0,20,9,20,20V80z"/>
	</g>
</g>
<g id="_x36_" class="st0">
	<g class="st1">
		<path class="st7" d="M200,80c0,11-9,20-20,20H20C9,100,0,91,0,80V20C0,9,9,0,20,0h160c11,0,20,9,20,20V80z"/>
	</g>
</g>
<g id="_x37_">
	<g>
		<path class="st8" d="M200,80c0,11-9,20-20,20H20C9,100,0,91,0,80V20C0,9,9,0,20,0h160c11,0,20,9,20,20V80z"/>
	</g>
</g>
<g id="_x38_" class="st0">
	<g class="st1">
		<path class="st9" d="M200,80c0,11-9,20-20,20H20C9,100,0,91,0,80V20C0,9,9,0,20,0h160c11,0,20,9,20,20V80z"/>
	</g>
</g>
</svg>
