<?xml version="1.0" encoding="utf-8"?>
<!-- Generator: Adobe Illustrator 23.0.0, SVG Export Plug-In . SVG Version: 6.00 Build 0)  -->
<svg version="1.1" id="Capa_1" xmlns="http://www.w3.org/2000/svg" xmlns:xlink="http://www.w3.org/1999/xlink" x="0px" y="0px"
	 viewBox="0 0 60 60" style="enable-background:new 0 0 60 60;" xml:space="preserve">
<style type="text/css">
	.st0{fill:#FFFFFF;}
</style>
<g>
	<path class="st0" d="M33.4,18.1c0.4-0.9,0.5-1.9,0.3-2.9c-0.2-0.7-0.2-1.5-0.2-2.2s0.1-1.5,0.2-2.2c0.2-0.9,0.1-2-0.3-2.9
		C31.4,3.1,26.7,0,21.5,0c-2.8,0-5,2.2-5,5v1h-2v14h2v1c0,2.8,2.2,5,5,5C26.7,26,31.4,22.9,33.4,18.1z"/>
	<path class="st0" d="M43.5,27c0-2.8-2.2-5-5-5c-5.2,0-9.9,3.1-11.9,7.9c-0.4,0.9-0.5,1.9-0.3,2.9c0.2,0.7,0.2,1.5,0.2,2.2
		s-0.1,1.5-0.2,2.2c-0.2,1-0.1,2,0.3,2.9c2.1,4.8,6.7,7.9,11.9,7.9c2.8,0,5-2.2,5-5v-1h2V28h-2V27z"/>
	<path class="st0" d="M1.5,15v16.3c0,1.5,1.2,2.7,2.7,2.7h1.3v26h2V34h1.3c1.5,0,2.7-1.2,2.7-2.7V20.7c0-0.4,0.3-0.7,0.7-0.7h0.3V6
		h-2C5.5,6,1.5,10,1.5,15z"/>
	<path class="st0" d="M49.5,28h-2v14h0.3c0.4,0,0.7,0.3,0.7,0.7v10.6c0,1.5,1.2,2.7,2.7,2.7h1.3v4h2v-4h1.3c1.5,0,2.7-1.2,2.7-2.7
		V37C58.5,32,54.5,28,49.5,28z"/>
</g>
</svg>
