<?xml version="1.0" encoding="utf-8"?>
<!-- Generator: Adobe Illustrator 23.0.0, SVG Export Plug-In . SVG Version: 6.00 Build 0)  -->
<svg version="1.1" id="Layer_1" xmlns="http://www.w3.org/2000/svg" xmlns:xlink="http://www.w3.org/1999/xlink" x="0px" y="0px"
	 viewBox="0 0 3000 2500" style="enable-background:new 0 0 3000 2500;" xml:space="preserve">
<style type="text/css">
	.st0{fill:#FFFFFF;}
</style>
<g transform="translate(0 1447.6)">
	<path class="st0" d="M505.6-1057c-42.1,0-76,33.2-76,74.3V377.2c0,39.2-5.5,71.1,30.1,74.1H210c-29.6,0-14.4,23-14.4,51.6v34.4
		c0,28.6,23.8,51.6,53.3,51.6H2836c29.6,0,53.3-23,53.3-51.6V503c0-28.6,15.1-51.6-14.4-51.6h-249.7c35.7-3,30.1-34.9,30.1-74.1
		V-982.7c0-41.2-33.9-74.3-76-74.3L505.6-1057L505.6-1057z M1162.1-1039c10.8,0,19.6,8.6,19.6,19.1c0,10.6-8.8,19.1-19.6,19.1
		s-19.6-8.6-19.6-19.1C1142.5-1030.4,1151.2-1039,1162.1-1039z M503.8-982.5h2077.5V377.1H503.8L503.8-982.5L503.8-982.5z
		 M1204.8,451.6h675.5c-1,14.4-11,25.6-23.3,25.6h-628.8C1215.8,477.2,1205.8,466,1204.8,451.6L1204.8,451.6z M2576.3,492.3
		c15.9,0,28.8,12.5,28.8,27.9s-12.9,27.9-28.8,27.9c-15.9,0-28.8-12.5-28.8-27.9S2560.4,492.3,2576.3,492.3z M2667.1,492.3
		c15.9,0,28.8,12.5,28.8,27.9c0,15.4-12.9,27.9-28.8,27.9c-15.9,0-28.8-12.5-28.8-27.9S2651.2,492.3,2667.1,492.3z M2758,492.3
		c15.9,0,28.8,12.5,28.8,27.9s-12.9,27.9-28.8,27.9c-15.9,0-28.8-12.5-28.8-27.9S2742.1,492.3,2758,492.3z M310.6,510.8h151.1
		c7.4,0,13.3,4.2,13.3,9.4c0,5.2-5.9,9.4-13.3,9.4H310.6c-7.4,0-13.3-4.2-13.3-9.4C297.2,515,303.2,510.8,310.6,510.8z"/>
</g>
</svg>
