<?xml version="1.0" encoding="utf-8"?>
<!-- Generator: Adobe Illustrator 23.0.0, SVG Export Plug-In . SVG Version: 6.00 Build 0)  -->
<svg version="1.1" id="Layer_1" xmlns="http://www.w3.org/2000/svg" xmlns:xlink="http://www.w3.org/1999/xlink" x="0px" y="0px"
	 viewBox="0 0 500 500" style="enable-background:new 0 0 500 500;" xml:space="preserve">
<style type="text/css">
	.st0{fill:#FFFFFF;}
</style>
<g transform="translate(0 -552.36)">
	<path class="st0" d="M88,661.7c-7.1,0-12.8,5.7-12.8,12.8v207.5c0,7.1,5.7,12.8,12.8,12.8h122.4v39.2h-13.9c-2.6,0-4.6,2.1-4.6,4.6
		c0,2.6,2.1,4.6,4.6,4.6h106.9c2.6,0,4.6-2.1,4.6-4.6c0-2.6-2.1-4.6-4.6-4.6h-13.9v-39.2H412c7.1,0,12.8-5.7,12.8-12.8V674.4
		c0-7.1-5.7-12.8-12.8-12.8H88z M91.5,677.4h317v200h-317L91.5,677.4z"/>
</g>
</svg>
