<?xml version="1.0" encoding="utf-8"?>
<!-- Generator: Adobe Illustrator 23.0.0, SVG Export Plug-In . SVG Version: 6.00 Build 0)  -->
<svg version="1.1" id="Layer_1" xmlns="http://www.w3.org/2000/svg" xmlns:xlink="http://www.w3.org/1999/xlink" x="0px" y="0px"
	 viewBox="0 0 2500 2500" style="enable-background:new 0 0 2500 2500;" xml:space="preserve">
<style type="text/css">
	.st0{fill:#FFFFFF;}
</style>
<g transform="translate(0 1447.6)">
	<path class="st0" d="M254.5-971.2c-48.5,0-87.5,35.8-87.5,80.3V387.6c0,44.5,39,80.3,87.5,80.3h1981.1c48.5,0,87.5-35.8,87.5-80.3
		V-890.9c0-44.5-39-80.3-87.5-80.3H254.5L254.5-971.2z M1245.1-939.1c16.6,0,30,13.4,30,30s-13.4,30-30,30l0,0
		c-16.6,0-30-13.4-30-30l0,0C1215.1-925.7,1228.5-939.1,1245.1-939.1L1245.1-939.1L1245.1-939.1z M297.7-847.5h1894.7V344.3H297.7
		L297.7-847.5L297.7-847.5z M1078.1,386.3h334c10.9,0,19.6,8.8,19.6,19.6c0,10.9-8.8,19.6-19.6,19.6h-334
		c-10.9,0-19.6-8.8-19.6-19.6C1058.4,395,1067.2,386.3,1078.1,386.3z"/>
</g>
</svg>
