<?xml version="1.0" encoding="utf-8"?>
<!-- Generator: Adobe Illustrator 23.0.0, SVG Export Plug-In . SVG Version: 6.00 Build 0)  -->
<svg version="1.1" xmlns="http://www.w3.org/2000/svg" xmlns:xlink="http://www.w3.org/1999/xlink" x="0px" y="0px"
	 viewBox="0 0 400 100" style="enable-background:new 0 0 400 100;" xml:space="preserve">
<style type="text/css">
	.st0{display:none;}
	.st1{display:inline;}
	.st2{fill:url(#SVGID_1_);}
	.st3{fill:url(#SVGID_2_);}
	.st4{fill:url(#SVGID_3_);}
	.st5{fill:url(#SVGID_4_);}
	.st6{fill:url(#SVGID_5_);}
	.st7{fill:url(#SVGID_6_);}
</style>
<g id="_x31_" class="st0">
	<g class="st1">
		<linearGradient id="SVGID_1_" gradientUnits="userSpaceOnUse" x1="0" y1="50" x2="400" y2="50">
			<stop  offset="0" style="stop-color:#FC78B2"/>
			<stop  offset="1" style="stop-color:#22E5E2"/>
		</linearGradient>
		<path class="st2" d="M400,50c0,27.5-22.5,50-50,50H50C22.5,100,0,77.5,0,50S22.5,0,50,0h300C377.5,0,400,22.5,400,50z"/>
	</g>
</g>
<g id="_x32__1_" class="st0">
	<g class="st1">
		<linearGradient id="SVGID_2_" gradientUnits="userSpaceOnUse" x1="0" y1="50" x2="400" y2="50">
			<stop  offset="0" style="stop-color:#01F7A8"/>
			<stop  offset="1" style="stop-color:#5481F1"/>
		</linearGradient>
		<path class="st3" d="M400,50c0,27.5-22.5,50-50,50H50C22.5,100,0,77.5,0,50S22.5,0,50,0h300C377.5,0,400,22.5,400,50z"/>
	</g>
</g>
<g id="_x33_" class="st0">
	<g class="st1">
		<linearGradient id="SVGID_3_" gradientUnits="userSpaceOnUse" x1="0" y1="50" x2="400" y2="50">
			<stop  offset="0" style="stop-color:#B424E3"/>
			<stop  offset="1" style="stop-color:#5DFC3A"/>
		</linearGradient>
		<path class="st4" d="M400,50c0,27.5-22.5,50-50,50H50C22.5,100,0,77.5,0,50S22.5,0,50,0h300C377.5,0,400,22.5,400,50z"/>
	</g>
</g>
<g id="_x34_">
	<g>
		<linearGradient id="SVGID_4_" gradientUnits="userSpaceOnUse" x1="0" y1="50" x2="400" y2="50">
			<stop  offset="0" style="stop-color:#FEBA28"/>
			<stop  offset="1" style="stop-color:#561CED"/>
		</linearGradient>
		<path class="st5" d="M400,50c0,27.5-22.5,50-50,50H50C22.5,100,0,77.5,0,50S22.5,0,50,0h300C377.5,0,400,22.5,400,50z"/>
	</g>
</g>
<g id="_x35_" class="st0">
	<g class="st1">
		<linearGradient id="SVGID_5_" gradientUnits="userSpaceOnUse" x1="0" y1="50" x2="400" y2="50">
			<stop  offset="0" style="stop-color:#CCF415"/>
			<stop  offset="1" style="stop-color:#FB61B0"/>
		</linearGradient>
		<path class="st6" d="M400,50c0,27.5-22.5,50-50,50H50C22.5,100,0,77.5,0,50S22.5,0,50,0h300C377.5,0,400,22.5,400,50z"/>
	</g>
</g>
<g id="_x36_" class="st0">
	<g class="st1">
		<linearGradient id="SVGID_6_" gradientUnits="userSpaceOnUse" x1="0" y1="50" x2="400" y2="50">
			<stop  offset="0" style="stop-color:#36F5C7"/>
			<stop  offset="1" style="stop-color:#F86968"/>
		</linearGradient>
		<path class="st7" d="M400,50c0,27.5-22.5,50-50,50H50C22.5,100,0,77.5,0,50S22.5,0,50,0h300C377.5,0,400,22.5,400,50z"/>
	</g>
</g>
</svg>
